# xmcd
#
# Track frame offsets:
#	150
#	17327
#	37212
#	62640
#
# Disc length: 1132 seconds
#
# Revision: 0
# Processed by: cddbd v1.5.1PL0 Copyright (c) Steve Scherf et al.
# Submitted via: EasyCDDAExtractor 8.0.2.1
#
DISCID=2b046a04
DTITLE=SWV - You're The One [CD Single)
DYEAR=1996
DGENRE=R&B
TTITLE0=You're The One (Radio Edit)
TTITLE1=You're The One ('96 Anthem) (All Star Remix With Rap)
TTITLE2=You're The One (DJ Clark Kent Remix With Rap)
TTITLE3=Right Here (Human Nature Duet) (Demolition 12" Mix)
EXTD=
EXTT0=
EXTT1=
EXTT2=
EXTT3=
PLAYORDER=
